<svg id="Layer_1" data-name="Layer 1" xmlns="http://www.w3.org/2000/svg" viewBox="0 0 888.52 743.98"><defs><style>.cls-1{fill:#fadf39;}.cls-2{fill:#3f3d56;}.cls-3{fill:#e6e6e6;}.cls-4{fill:#fff;}.cls-5{fill:#ccc;}.cls-6{fill:#81f0e8;}.cls-7{fill:#f2f2f2;}</style></defs><title>undraw_order_a_car_-3-tww (2)</title><circle class="cls-1" cx="249.51" cy="102.72" r="65.62"/><polygon class="cls-2" points="632.67 121.85 553.96 121.85 553.96 50.3 632.67 121.85"/><rect class="cls-3" x="245.92" y="119.51" width="395.95" height="547.03"/><rect class="cls-4" x="285.42" y="157.86" width="46.58" height="98.16"/><rect class="cls-4" x="357.47" y="157.86" width="46.58" height="98.16"/><rect class="cls-4" x="279.28" y="296.98" width="46.58" height="98.16"/><rect class="cls-4" x="357.47" y="296.98" width="46.58" height="98.16"/><rect class="cls-4" x="279.28" y="425.71" width="46.58" height="98.16"/><rect class="cls-4" x="355.72" y="423.96" width="46.58" height="98.16"/><rect class="cls-5" x="423.42" y="568.6" width="46.58" height="98.16"/><rect class="cls-4" x="493.8" y="423.96" width="46.58" height="98.16"/><rect class="cls-4" x="571.99" y="423.96" width="46.58" height="98.16"/><rect class="cls-4" x="495.56" y="295.94" width="46.58" height="98.16"/><rect class="cls-4" x="573.75" y="295.94" width="46.58" height="98.16"/><rect class="cls-4" x="495.56" y="157.86" width="46.58" height="98.16"/><rect class="cls-4" x="573.75" y="157.86" width="46.58" height="98.16"/><rect class="cls-2" x="245.92" y="245.94" width="395.95" height="14.97"/><rect class="cls-2" x="245.92" y="362.4" width="395.95" height="8.32"/><rect class="cls-2" x="245.92" y="335.78" width="395.95" height="8.32"/><rect class="cls-2" x="276.69" y="463.88" width="8.32" height="66.55"/><rect class="cls-2" x="323.28" y="463.88" width="8.32" height="66.55"/><rect class="cls-2" x="369.86" y="463.88" width="8.32" height="66.55"/><rect class="cls-2" x="416.44" y="463.88" width="8.32" height="66.55"/><rect class="cls-2" x="463.02" y="463.88" width="8.32" height="66.55"/><rect class="cls-2" x="509.61" y="463.88" width="8.32" height="66.55"/><rect class="cls-2" x="556.19" y="463.88" width="8.32" height="66.55"/><rect class="cls-2" x="602.77" y="463.88" width="8.32" height="66.55"/><rect class="cls-2" x="277.53" y="337.45" width="8.32" height="66.55"/><rect class="cls-2" x="324.11" y="337.45" width="8.32" height="66.55"/><rect class="cls-2" x="370.69" y="337.45" width="8.32" height="66.55"/><rect class="cls-2" x="417.27" y="337.45" width="8.32" height="66.55"/><rect class="cls-2" x="463.86" y="337.45" width="8.32" height="66.55"/><rect class="cls-2" x="510.44" y="337.45" width="8.32" height="66.55"/><rect class="cls-2" x="557.02" y="337.45" width="8.32" height="66.55"/><rect class="cls-2" x="603.6" y="337.45" width="8.32" height="66.55"/><rect class="cls-2" x="277.53" y="189.38" width="8.32" height="66.55"/><rect class="cls-2" x="324.11" y="189.38" width="8.32" height="66.55"/><rect class="cls-2" x="370.69" y="189.38" width="8.32" height="66.55"/><rect class="cls-2" x="417.27" y="189.38" width="8.32" height="66.55"/><rect class="cls-2" x="463.86" y="189.38" width="8.32" height="66.55"/><rect class="cls-2" x="510.44" y="189.38" width="8.32" height="66.55"/><rect class="cls-2" x="557.02" y="189.38" width="8.32" height="66.55"/><rect class="cls-2" x="603.6" y="189.38" width="8.32" height="66.55"/><rect class="cls-2" x="245.92" y="212.67" width="395.95" height="8.32"/><rect class="cls-2" x="245.92" y="186.05" width="395.95" height="8.32"/><rect class="cls-2" x="245.92" y="390.68" width="395.95" height="14.97"/><rect class="cls-2" x="227.7" y="113.35" width="432.39" height="22.31"/><polygon class="cls-4" points="332.09 589.82 332.09 568.6 306.62 568.6 306.62 589.82 329.97 589.82 332.09 589.82"/><polygon class="cls-4" points="329.97 606.8 306.62 606.8 306.62 628.03 332.09 628.03 332.09 606.8 329.97 606.8"/><rect class="cls-4" x="349.07" y="568.6" width="25.47" height="21.22"/><rect class="cls-4" x="349.07" y="606.8" width="25.47" height="21.22"/><polygon class="cls-4" points="539.82 589.82 539.82 568.6 514.35 568.6 514.35 589.82 537.7 589.82 539.82 589.82"/><polygon class="cls-4" points="537.7 606.8 514.35 606.8 514.35 628.03 539.82 628.03 539.82 606.8 537.7 606.8"/><rect class="cls-4" x="556.8" y="568.6" width="25.47" height="21.22"/><rect class="cls-4" x="556.8" y="606.8" width="25.47" height="21.22"/><rect class="cls-2" x="245.92" y="517.12" width="395.95" height="14.97"/><rect class="cls-2" x="245.92" y="490.5" width="395.95" height="8.32"/><rect class="cls-2" x="245.92" y="463.88" width="395.95" height="8.32"/><path class="cls-6" d="M365.79,659.41c0-.47,0-.93,0-1.39-.36-12.26-12.52-15.59-19-9.78a11.31,11.31,0,0,0-14.84,0c-6.55-5.72-18.47-2.63-18.87,9.5,0,.46,0,.92,0,1.38a69.45,69.45,0,0,0,.47,7.63h51.86A72.12,72.12,0,0,0,365.79,659.41Z"/><path class="cls-6" d="M571.9,659.41c0-.47,0-.93,0-1.39-.36-12.26-12.52-15.59-19-9.78a11.31,11.31,0,0,0-14.84,0c-6.55-5.72-18.47-2.63-18.87,9.5,0,.46,0,.92,0,1.38a69.45,69.45,0,0,0,.47,7.63h51.86A72.12,72.12,0,0,0,571.9,659.41Z"/><polygon class="cls-3" points="856.31 667.58 848.29 667.58 850.97 510.91 853.64 510.91 856.31 667.58"/><path class="cls-3" d="M863,412.28l12.94-20a298.75,298.75,0,0,0-13.28-31.09l-8.37,6.76,6.63-10.25c-6.32-12.43-11.29-20.27-11.29-20.27s-26,40.92-34.64,84.24l16.61,25.68-18.39-14.86a123,123,0,0,0-1,15.22c0,51.3,16.76,92.9,37.43,92.9s37.43-41.6,37.43-92.9c0-15.91-3.6-32.55-8.56-47.94Z"/><polygon class="cls-1" points="828.07 448.45 656.97 448.45 656.97 574.43 657.07 574.43 657.07 599.52 682.16 574.43 828.07 574.43 828.07 448.45"/><rect class="cls-3" x="459.89" y="717.51" width="151.8" height="6"/><rect class="cls-3" x="735.89" y="717.51" width="152.62" height="6"/><rect class="cls-3" x="183.89" y="717.51" width="152" height="6"/><rect class="cls-2" y="666.62" width="887.89" height="1.67"/><rect class="cls-2" x="696.39" y="692.68" width="17.88" height="2.84"/><path class="cls-1" d="M567.15,693.31l3.69.86,140.17.07,1.26-2.93a29.67,29.67,0,0,0,2.18-16c-.61-4.06-2.12-8.09-5.56-9.84L702.67,624l-77.54-.14-30,24.2s-14.15-.25-21.84,9.32a22.51,22.51,0,0,0-4.7,12.37l-.3,5Z"/><circle class="cls-2" cx="597.94" cy="692.62" r="17.31"/><circle class="cls-5" cx="597.94" cy="692.62" r="9.11"/><circle class="cls-2" cx="683.34" cy="692.67" r="17.31"/><circle class="cls-5" cx="683.34" cy="692.67" r="9.11"/><polygon class="cls-4" points="607.04 645.24 648.91 645.26 654.02 645.26 662.65 645.27 662.65 644.64 662.66 637.05 662.66 628.53 656.92 628.53 651.81 628.52 642.76 628.52 637.65 628.52 627.2 628.51 607.04 645.24"/><polygon class="cls-4" points="669.47 645.27 691.59 645.29 691.6 640.94 691.6 633.36 691.61 628.55 688.37 628.55 683.25 628.54 669.47 628.54 669.47 645.27"/><rect class="cls-2" x="659.81" y="657.76" width="2.84" height="5.39"/><rect class="cls-2" x="613" y="650.07" width="5.39" height="2.84"/><path class="cls-2" d="M616.4,651.32h-.31a5.93,5.93,0,0,1-5.93-5.94h0a5.93,5.93,0,0,1,5.94-5.92h.31v11.86Z"/><path class="cls-2" d="M568.28,674.74a9.16,9.16,0,0,0,5-17.35,22.51,22.51,0,0,0-4.7,12.37Z"/><polygon class="cls-7" points="651.81 628.52 662.65 644.64 662.66 637.05 656.92 628.53 651.81 628.52"/><polygon class="cls-7" points="683.25 628.54 691.6 640.94 691.6 633.36 688.37 628.55 683.25 628.54"/><polygon class="cls-7" points="637.65 628.52 648.91 645.26 654.02 645.26 642.76 628.52 637.65 628.52"/><path class="cls-3" d="M410.4,1.05l-.12.06a8.54,8.54,0,0,1-8.15,0L401.91,1a8.6,8.6,0,0,0-8.14,0l-.11.06a8.54,8.54,0,0,1-8.15,0L385.28,1a8.53,8.53,0,0,0-8.06,0c-3.79,2-8.92,5.53-8.9,9.47a3.59,3.59,0,0,0,0,.47c.44,4.1,13.8,5.14,21.14,3.21a37.3,37.3,0,0,0,16.62,0c7.3,2,20.93.84,21.33-3.31a3.54,3.54,0,0,0,0-.46c0-3.95-5.19-7.4-9-9.42A8.53,8.53,0,0,0,410.4,1.05Z"/><path class="cls-3" d="M778.4,136.26l-.12.07a8.54,8.54,0,0,1-8.15,0l-.22-.12a8.57,8.57,0,0,0-8.14,0l-.11.06a8.54,8.54,0,0,1-8.15,0l-.23-.12a8.53,8.53,0,0,0-8.06,0c-3.79,2-8.92,5.54-8.9,9.48a3.71,3.71,0,0,0,0,.47c.44,4.09,13.8,5.14,21.14,3.21a37.59,37.59,0,0,0,16.62,0c7.3,2,20.93.83,21.33-3.31a3.7,3.7,0,0,0,0-.47c0-3.94-5.19-7.4-9-9.41A8.53,8.53,0,0,0,778.4,136.26Z"/><path class="cls-3" d="M134,143.81l-.12.07a8.57,8.57,0,0,1-8.15,0l-.22-.11a8.57,8.57,0,0,0-8.14,0l-.11.06a8.57,8.57,0,0,1-8.15,0l-.23-.12a8.55,8.55,0,0,0-8.06,0c-3.79,2-8.92,5.53-8.9,9.48a3.55,3.55,0,0,0,0,.46c.44,4.1,13.8,5.14,21.14,3.21a37.3,37.3,0,0,0,16.62,0c7.3,2,20.93.84,21.33-3.3a3.7,3.7,0,0,0,0-.47c0-3.94-5.19-7.4-9-9.41A8.51,8.51,0,0,0,134,143.81Z"/><rect class="cls-2" x="92.28" y="726.68" width="17.88" height="2.84"/><path class="cls-1" d="M239.4,727.31l-3.69.86-140.17.07-1.26-2.93a29.67,29.67,0,0,1-2.18-16c.61-4.06,2.12-8.09,5.55-9.84L103.87,658l77.55-.14,30,24.2s14.15-.25,21.84,9.32a22.51,22.51,0,0,1,4.7,12.38l.3,5Z"/><circle class="cls-2" cx="208.61" cy="726.62" r="17.31"/><circle class="cls-5" cx="208.61" cy="726.62" r="9.11"/><circle class="cls-2" cx="123.21" cy="726.67" r="17.31" transform="translate(-71 15.68) rotate(-5.65)"/><circle class="cls-5" cx="123.21" cy="726.67" r="9.11"/><polygon class="cls-4" points="199.5 679.24 157.63 679.26 152.52 679.26 143.9 679.27 143.9 678.64 143.89 671.05 143.88 662.53 149.62 662.53 154.74 662.52 163.79 662.52 168.9 662.52 179.35 662.51 199.5 679.24"/><polygon class="cls-4" points="137.08 679.27 114.95 679.29 114.95 674.95 114.95 667.36 114.94 662.55 118.18 662.55 123.29 662.54 137.08 662.54 137.08 679.27"/><rect class="cls-2" x="143.9" y="691.76" width="2.84" height="5.39"/><rect class="cls-2" x="188.16" y="684.07" width="5.39" height="2.84"/><path class="cls-2" d="M190.14,673.46h.32a5.93,5.93,0,0,1,5.93,5.93h0a5.94,5.94,0,0,1-5.93,5.93h-.32V673.46Z"/><path class="cls-2" d="M238.27,708.74a9.16,9.16,0,0,1-5-17.35,22.51,22.51,0,0,1,4.7,12.38Z"/><polygon class="cls-7" points="154.74 662.52 143.9 678.64 143.89 671.05 149.62 662.53 154.74 662.52"/><polygon class="cls-7" points="123.29 662.54 114.95 674.95 114.95 667.36 118.18 662.55 123.29 662.54"/><polygon class="cls-7" points="168.9 662.52 157.63 679.26 152.52 679.26 163.79 662.52 168.9 662.52"/><polygon class="cls-4" points="736.53 538.29 714.68 510.2 727.38 500.32 737.73 513.62 772.68 476.73 784.37 487.8 736.53 538.29"/><polygon class="cls-1" points="6.34 480.32 177.44 480.32 177.44 606.31 177.34 606.31 177.34 631.39 152.26 606.31 6.34 606.31 6.34 480.32"/><polygon class="cls-4" points="87.04 573.17 65.19 545.08 77.9 535.19 88.24 548.5 123.19 511.6 134.88 522.67 87.04 573.17"/></svg>